<mxfile host="app.diagrams.net" modified="2022-01-27T17:27:59.501Z" agent="5.0 (Windows NT 10.0; Win64; x64) AppleWebKit/537.36 (KHTML, like Gecko) Chrome/97.0.4692.71 Safari/537.36" etag="yr7I8FO6BVdkkbjgJ00y" version="15.9.2" type="github">
  <diagram name="Page-1" id="c4acf3e9-155e-7222-9cf6-157b1a14988f">
    <mxGraphModel dx="1952" dy="580" grid="1" gridSize="10" guides="1" tooltips="1" connect="1" arrows="1" fold="1" page="1" pageScale="1" pageWidth="850" pageHeight="1100" background="none" math="0" shadow="0">
      <root>
        <mxCell id="0" />
        <mxCell id="1" parent="0" />
        <mxCell id="JpAQMfUCXVNaZjrBORA9-3" value=".jpg" style="html=1;" parent="1" vertex="1">
          <mxGeometry x="30" y="40" width="110" height="50" as="geometry" />
        </mxCell>
        <mxCell id="JpAQMfUCXVNaZjrBORA9-4" value="EML" style="shape=module;align=left;spacingLeft=20;align=center;verticalAlign=top;" parent="1" vertex="1">
          <mxGeometry x="200" y="40" width="100" height="50" as="geometry" />
        </mxCell>
        <mxCell id="JpAQMfUCXVNaZjrBORA9-5" value="salience map" style="html=1;" parent="1" vertex="1">
          <mxGeometry x="370" y="40" width="110" height="50" as="geometry" />
        </mxCell>
        <mxCell id="JpAQMfUCXVNaZjrBORA9-6" value="return" style="html=1;verticalAlign=bottom;endArrow=open;dashed=1;endSize=8;rounded=0;exitX=1;exitY=0.5;exitDx=0;exitDy=0;entryX=0;entryY=0.5;entryDx=0;entryDy=0;" parent="1" source="JpAQMfUCXVNaZjrBORA9-4" target="JpAQMfUCXVNaZjrBORA9-5" edge="1">
          <mxGeometry relative="1" as="geometry">
            <mxPoint x="400" y="170" as="sourcePoint" />
            <mxPoint x="320" y="170" as="targetPoint" />
          </mxGeometry>
        </mxCell>
        <mxCell id="JpAQMfUCXVNaZjrBORA9-9" value="Use" style="endArrow=open;endSize=12;dashed=1;html=1;rounded=0;exitX=1;exitY=0.5;exitDx=0;exitDy=0;entryX=0.133;entryY=0.507;entryDx=0;entryDy=0;entryPerimeter=0;" parent="1" source="JpAQMfUCXVNaZjrBORA9-3" target="JpAQMfUCXVNaZjrBORA9-4" edge="1">
          <mxGeometry width="160" relative="1" as="geometry">
            <mxPoint x="280" y="170" as="sourcePoint" />
            <mxPoint x="440" y="170" as="targetPoint" />
          </mxGeometry>
        </mxCell>
        <mxCell id="JpAQMfUCXVNaZjrBORA9-10" value="SLCA&#xa;" style="shape=module;align=left;spacingLeft=20;align=center;verticalAlign=top;" parent="1" vertex="1">
          <mxGeometry x="180" y="130" width="310" height="190" as="geometry" />
        </mxCell>
        <mxCell id="JpAQMfUCXVNaZjrBORA9-11" value="SalienceDemo.py" style="verticalAlign=top;align=left;spacingTop=8;spacingLeft=2;spacingRight=12;shape=cube;size=10;direction=south;fontStyle=4;html=1;" parent="1" vertex="1">
          <mxGeometry x="210" y="170" width="120" height="60" as="geometry" />
        </mxCell>
        <mxCell id="JpAQMfUCXVNaZjrBORA9-12" value="slca.py" style="verticalAlign=top;align=left;spacingTop=8;spacingLeft=2;spacingRight=12;shape=cube;size=10;direction=south;fontStyle=4;html=1;" parent="1" vertex="1">
          <mxGeometry x="355" y="250" width="120" height="60" as="geometry" />
        </mxCell>
        <mxCell id="JpAQMfUCXVNaZjrBORA9-14" value="data folder" style="html=1;" parent="1" vertex="1">
          <mxGeometry x="360" y="170" width="115" height="50" as="geometry" />
        </mxCell>
        <mxCell id="JpAQMfUCXVNaZjrBORA9-15" value="Use" style="endArrow=open;endSize=12;dashed=1;html=1;rounded=0;entryX=0;entryY=0;entryDx=35;entryDy=120;entryPerimeter=0;exitX=0;exitY=0;exitDx=60;exitDy=65;exitPerimeter=0;" parent="1" source="JpAQMfUCXVNaZjrBORA9-11" target="JpAQMfUCXVNaZjrBORA9-12" edge="1">
          <mxGeometry width="160" relative="1" as="geometry">
            <mxPoint x="280" y="230" as="sourcePoint" />
            <mxPoint x="440" y="230" as="targetPoint" />
            <Array as="points">
              <mxPoint x="265" y="285" />
            </Array>
          </mxGeometry>
        </mxCell>
        <mxCell id="JpAQMfUCXVNaZjrBORA9-16" value="Use" style="endArrow=open;endSize=12;dashed=1;html=1;rounded=0;entryX=0.5;entryY=1;entryDx=0;entryDy=0;" parent="1" source="JpAQMfUCXVNaZjrBORA9-12" target="JpAQMfUCXVNaZjrBORA9-14" edge="1">
          <mxGeometry width="160" relative="1" as="geometry">
            <mxPoint x="280" y="230" as="sourcePoint" />
            <mxPoint x="440" y="230" as="targetPoint" />
          </mxGeometry>
        </mxCell>
        <mxCell id="JpAQMfUCXVNaZjrBORA9-18" value="" style="endArrow=diamondThin;endFill=0;endSize=24;html=1;rounded=0;entryX=0.5;entryY=0;entryDx=0;entryDy=0;" parent="1" target="JpAQMfUCXVNaZjrBORA9-14" edge="1">
          <mxGeometry width="160" relative="1" as="geometry">
            <mxPoint x="418" y="90" as="sourcePoint" />
            <mxPoint x="440" y="230" as="targetPoint" />
          </mxGeometry>
        </mxCell>
        <mxCell id="JpAQMfUCXVNaZjrBORA9-19" value="2 coord lists" style="html=1;" parent="1" vertex="1">
          <mxGeometry x="40" y="180" width="110" height="50" as="geometry" />
        </mxCell>
        <mxCell id="JpAQMfUCXVNaZjrBORA9-22" value="return" style="html=1;verticalAlign=bottom;endArrow=open;dashed=1;endSize=8;rounded=0;entryX=1;entryY=0.5;entryDx=0;entryDy=0;exitX=0;exitY=0;exitDx=35;exitDy=120;exitPerimeter=0;" parent="1" source="JpAQMfUCXVNaZjrBORA9-11" target="JpAQMfUCXVNaZjrBORA9-19" edge="1">
          <mxGeometry relative="1" as="geometry">
            <mxPoint x="390" y="250" as="sourcePoint" />
            <mxPoint x="310" y="250" as="targetPoint" />
          </mxGeometry>
        </mxCell>
        <mxCell id="JpAQMfUCXVNaZjrBORA9-23" value="Visual VoSEM" style="shape=module;align=left;spacingLeft=20;align=center;verticalAlign=top;" parent="1" vertex="1">
          <mxGeometry x="-220" y="350" width="710" height="270" as="geometry" />
        </mxCell>
        <mxCell id="JpAQMfUCXVNaZjrBORA9-24" value="Algo" style="shape=umlFrame;whiteSpace=wrap;html=1;fillColor=none;" parent="1" vertex="1">
          <mxGeometry x="-200" y="450" width="680" height="160" as="geometry" />
        </mxCell>
        <mxCell id="JpAQMfUCXVNaZjrBORA9-25" value="Plotly" style="shape=folder;fontStyle=1;spacingTop=10;tabWidth=40;tabHeight=14;tabPosition=left;html=1;fillColor=none;" parent="1" vertex="1">
          <mxGeometry x="-220" y="245" width="70" height="50" as="geometry" />
        </mxCell>
        <mxCell id="JpAQMfUCXVNaZjrBORA9-27" value="start script" style="verticalAlign=top;align=left;spacingTop=8;spacingLeft=2;spacingRight=12;shape=cube;size=10;direction=south;fontStyle=4;html=1;" parent="1" vertex="1">
          <mxGeometry x="200" y="370" width="120" height="60" as="geometry" />
        </mxCell>
        <mxCell id="JpAQMfUCXVNaZjrBORA9-21" value="" style="edgeStyle=orthogonalEdgeStyle;html=1;verticalAlign=bottom;endArrow=open;endSize=8;strokeColor=#ff0000;rounded=0;startArrow=none;" parent="1" source="JpAQMfUCXVNaZjrBORA9-43" edge="1">
          <mxGeometry relative="1" as="geometry">
            <mxPoint x="215" y="230" as="targetPoint" />
            <mxPoint x="215" y="265" as="sourcePoint" />
            <Array as="points" />
          </mxGeometry>
        </mxCell>
        <mxCell id="JpAQMfUCXVNaZjrBORA9-32" value="" style="ellipse;html=1;shape=startState;fillColor=none;strokeColor=#ff0000;" parent="1" vertex="1">
          <mxGeometry x="380" y="385" width="30" height="30" as="geometry" />
        </mxCell>
        <mxCell id="JpAQMfUCXVNaZjrBORA9-33" value="" style="edgeStyle=orthogonalEdgeStyle;html=1;verticalAlign=bottom;endArrow=open;endSize=8;strokeColor=#ff0000;rounded=0;startArrow=none;" parent="1" source="JpAQMfUCXVNaZjrBORA9-41" edge="1">
          <mxGeometry relative="1" as="geometry">
            <mxPoint x="310" y="400" as="targetPoint" />
          </mxGeometry>
        </mxCell>
        <mxCell id="JpAQMfUCXVNaZjrBORA9-38" value="animation script" style="verticalAlign=top;align=left;spacingTop=8;spacingLeft=2;spacingRight=12;shape=cube;size=10;direction=south;fontStyle=4;html=1;" parent="1" vertex="1">
          <mxGeometry x="-195" y="370" width="120" height="60" as="geometry" />
        </mxCell>
        <mxCell id="JpAQMfUCXVNaZjrBORA9-40" value="" style="edgeStyle=orthogonalEdgeStyle;html=1;verticalAlign=bottom;endArrow=open;endSize=8;strokeColor=#ff0000;rounded=0;startArrow=none;" parent="1" source="JpAQMfUCXVNaZjrBORA9-46" edge="1">
          <mxGeometry relative="1" as="geometry">
            <mxPoint x="-80" y="400" as="targetPoint" />
            <mxPoint x="190" y="400" as="sourcePoint" />
          </mxGeometry>
        </mxCell>
        <mxCell id="JpAQMfUCXVNaZjrBORA9-41" value="&lt;font style=&quot;font-size: 18px&quot;&gt;&lt;b&gt;1&lt;/b&gt;&lt;/font&gt;" style="text;html=1;align=center;verticalAlign=middle;resizable=0;points=[];autosize=1;strokeColor=none;fillColor=none;strokeWidth=3;" parent="1" vertex="1">
          <mxGeometry x="340" y="390" width="30" height="20" as="geometry" />
        </mxCell>
        <mxCell id="JpAQMfUCXVNaZjrBORA9-42" value="" style="edgeStyle=orthogonalEdgeStyle;html=1;verticalAlign=bottom;endArrow=none;endSize=8;strokeColor=#ff0000;rounded=0;" parent="1" source="JpAQMfUCXVNaZjrBORA9-32" target="JpAQMfUCXVNaZjrBORA9-41" edge="1">
          <mxGeometry relative="1" as="geometry">
            <mxPoint x="310" y="400" as="targetPoint" />
            <mxPoint x="380" y="400" as="sourcePoint" />
          </mxGeometry>
        </mxCell>
        <mxCell id="JpAQMfUCXVNaZjrBORA9-43" value="&lt;font style=&quot;font-size: 18px&quot;&gt;&lt;b&gt;2&lt;/b&gt;&lt;/font&gt;" style="text;html=1;align=center;verticalAlign=middle;resizable=0;points=[];autosize=1;strokeColor=none;fillColor=none;strokeWidth=3;" parent="1" vertex="1">
          <mxGeometry x="200" y="260" width="30" height="20" as="geometry" />
        </mxCell>
        <mxCell id="JpAQMfUCXVNaZjrBORA9-45" value="" style="edgeStyle=orthogonalEdgeStyle;html=1;verticalAlign=bottom;endArrow=none;endSize=8;strokeColor=#ff0000;rounded=0;" parent="1" source="JpAQMfUCXVNaZjrBORA9-27" target="JpAQMfUCXVNaZjrBORA9-43" edge="1">
          <mxGeometry relative="1" as="geometry">
            <mxPoint x="215" y="230" as="targetPoint" />
            <mxPoint x="260.0666666666666" y="370" as="sourcePoint" />
            <Array as="points">
              <mxPoint x="260" y="300" />
              <mxPoint x="215" y="300" />
            </Array>
          </mxGeometry>
        </mxCell>
        <mxCell id="JpAQMfUCXVNaZjrBORA9-46" value="&lt;span style=&quot;font-size: 18px&quot;&gt;&lt;b&gt;3&lt;/b&gt;&lt;/span&gt;" style="text;html=1;align=center;verticalAlign=middle;resizable=0;points=[];autosize=1;strokeColor=none;fillColor=none;strokeWidth=3;" parent="1" vertex="1">
          <mxGeometry x="30" y="390" width="30" height="20" as="geometry" />
        </mxCell>
        <mxCell id="JpAQMfUCXVNaZjrBORA9-49" value="" style="edgeStyle=orthogonalEdgeStyle;html=1;verticalAlign=bottom;endArrow=none;endSize=8;strokeColor=#ff0000;rounded=0;exitX=0.493;exitY=1.006;exitDx=0;exitDy=0;exitPerimeter=0;" parent="1" source="JpAQMfUCXVNaZjrBORA9-27" target="JpAQMfUCXVNaZjrBORA9-46" edge="1">
          <mxGeometry relative="1" as="geometry">
            <mxPoint x="-80" y="400" as="targetPoint" />
            <mxPoint x="199.2800000000002" y="399.5799999999999" as="sourcePoint" />
          </mxGeometry>
        </mxCell>
        <mxCell id="JpAQMfUCXVNaZjrBORA9-50" value="Create 3D axes model" style="rounded=1;whiteSpace=wrap;html=1;arcSize=40;fontColor=#000000;fillColor=#ffffc0;strokeColor=#ff0000;" parent="1" vertex="1">
          <mxGeometry x="-180" y="500" width="120" height="40" as="geometry" />
        </mxCell>
        <mxCell id="JpAQMfUCXVNaZjrBORA9-52" value="&lt;font style=&quot;font-size: 14px&quot;&gt;1. It is better to shape the backside of the cube model to the length and width of an original .jpg image&lt;br&gt;2. It is also better to use original .jpg as a background&lt;br&gt;3. Also EYE object can be created at the center of a watch side&lt;br&gt;&lt;/font&gt;" style="shape=note;whiteSpace=wrap;html=1;backgroundOutline=1;darkOpacity=0.05;fontSize=18;strokeWidth=1;fillColor=none;" parent="1" vertex="1">
          <mxGeometry x="-220" y="640" width="210" height="260" as="geometry" />
        </mxCell>
        <mxCell id="JpAQMfUCXVNaZjrBORA9-53" value="" style="endArrow=none;dashed=1;html=1;dashPattern=1 3;strokeWidth=2;rounded=0;fontSize=14;entryX=0.5;entryY=1;entryDx=0;entryDy=0;" parent="1" target="JpAQMfUCXVNaZjrBORA9-50" edge="1">
          <mxGeometry width="50" height="50" relative="1" as="geometry">
            <mxPoint x="-120" y="640" as="sourcePoint" />
            <mxPoint x="90" y="580" as="targetPoint" />
          </mxGeometry>
        </mxCell>
        <mxCell id="JpAQMfUCXVNaZjrBORA9-54" value="Use" style="endArrow=open;endSize=12;dashed=1;html=1;rounded=0;fontSize=14;exitX=0;exitY=0;exitDx=0;exitDy=110;exitPerimeter=0;entryX=0.5;entryY=1;entryDx=0;entryDy=0;entryPerimeter=0;" parent="1" source="JpAQMfUCXVNaZjrBORA9-38" target="JpAQMfUCXVNaZjrBORA9-25" edge="1">
          <mxGeometry width="160" relative="1" as="geometry">
            <mxPoint x="-80" y="310" as="sourcePoint" />
            <mxPoint x="80" y="310" as="targetPoint" />
          </mxGeometry>
        </mxCell>
        <mxCell id="JpAQMfUCXVNaZjrBORA9-55" value="Matplotlib" style="shape=folder;fontStyle=1;spacingTop=10;tabWidth=40;tabHeight=14;tabPosition=left;html=1;fillColor=none;" parent="1" vertex="1">
          <mxGeometry x="-130" y="245" width="70" height="50" as="geometry" />
        </mxCell>
        <mxCell id="JpAQMfUCXVNaZjrBORA9-56" value="Use" style="endArrow=open;endSize=12;dashed=1;html=1;rounded=0;fontSize=14;exitX=0;exitY=0;exitDx=0;exitDy=110;exitPerimeter=0;entryX=0.5;entryY=1;entryDx=0;entryDy=0;entryPerimeter=0;" parent="1" source="JpAQMfUCXVNaZjrBORA9-38" target="JpAQMfUCXVNaZjrBORA9-55" edge="1">
          <mxGeometry width="160" relative="1" as="geometry">
            <mxPoint x="-175" y="380" as="sourcePoint" />
            <mxPoint x="-175" y="305" as="targetPoint" />
          </mxGeometry>
        </mxCell>
        <mxCell id="JpAQMfUCXVNaZjrBORA9-58" value="Parse lists to coords&amp;nbsp;" style="rounded=1;whiteSpace=wrap;html=1;arcSize=40;fontColor=#000000;fillColor=#ffffc0;strokeColor=#ff0000;" parent="1" vertex="1">
          <mxGeometry x="-30" y="500" width="120" height="40" as="geometry" />
        </mxCell>
        <mxCell id="JpAQMfUCXVNaZjrBORA9-60" value="Use" style="endArrow=open;endSize=12;dashed=1;html=1;rounded=0;fontSize=14;exitX=0;exitY=0;exitDx=0;exitDy=0;exitPerimeter=0;entryX=0.5;entryY=1;entryDx=0;entryDy=0;" parent="1" source="JpAQMfUCXVNaZjrBORA9-38" target="JpAQMfUCXVNaZjrBORA9-19" edge="1">
          <mxGeometry width="160" relative="1" as="geometry">
            <mxPoint x="-175" y="380" as="sourcePoint" />
            <mxPoint x="-85" y="305" as="targetPoint" />
          </mxGeometry>
        </mxCell>
        <mxCell id="JpAQMfUCXVNaZjrBORA9-62" value="" style="endArrow=classic;html=1;entryX=0.5;entryY=0;entryDx=0;entryDy=0;" parent="1" target="JpAQMfUCXVNaZjrBORA9-50" edge="1">
          <mxGeometry relative="1" as="geometry">
            <mxPoint x="-120" y="430" as="sourcePoint" />
            <mxPoint x="140" y="430" as="targetPoint" />
          </mxGeometry>
        </mxCell>
        <mxCell id="JpAQMfUCXVNaZjrBORA9-63" value="starts" style="edgeLabel;resizable=0;html=1;align=center;verticalAlign=middle;fontSize=14;strokeWidth=1;fillColor=none;" parent="JpAQMfUCXVNaZjrBORA9-62" connectable="0" vertex="1">
          <mxGeometry relative="1" as="geometry" />
        </mxCell>
        <mxCell id="JpAQMfUCXVNaZjrBORA9-64" value="" style="endArrow=classic;html=1;rounded=0;fontSize=14;exitX=1;exitY=0.5;exitDx=0;exitDy=0;entryX=0;entryY=0.5;entryDx=0;entryDy=0;" parent="1" source="JpAQMfUCXVNaZjrBORA9-50" target="JpAQMfUCXVNaZjrBORA9-58" edge="1">
          <mxGeometry width="50" height="50" relative="1" as="geometry">
            <mxPoint x="210" y="540" as="sourcePoint" />
            <mxPoint x="-40" y="520" as="targetPoint" />
          </mxGeometry>
        </mxCell>
        <mxCell id="JpAQMfUCXVNaZjrBORA9-65" value="Numpy" style="shape=folder;fontStyle=1;spacingTop=10;tabWidth=40;tabHeight=14;tabPosition=left;html=1;fillColor=none;" parent="1" vertex="1">
          <mxGeometry x="-310" y="245" width="70" height="50" as="geometry" />
        </mxCell>
        <mxCell id="JpAQMfUCXVNaZjrBORA9-66" value="Use" style="endArrow=open;endSize=12;dashed=1;html=1;rounded=0;fontSize=14;entryX=0.5;entryY=1;entryDx=0;entryDy=0;entryPerimeter=0;" parent="1" target="JpAQMfUCXVNaZjrBORA9-65" edge="1">
          <mxGeometry width="160" relative="1" as="geometry">
            <mxPoint x="-180" y="370" as="sourcePoint" />
            <mxPoint x="-175" y="304.9999999999999" as="targetPoint" />
          </mxGeometry>
        </mxCell>
        <mxCell id="JpAQMfUCXVNaZjrBORA9-68" value="Display coords&amp;nbsp;" style="rounded=1;whiteSpace=wrap;html=1;arcSize=40;fontColor=#000000;fillColor=#ffffc0;strokeColor=#ff0000;" parent="1" vertex="1">
          <mxGeometry x="-30" y="560" width="120" height="40" as="geometry" />
        </mxCell>
        <mxCell id="JpAQMfUCXVNaZjrBORA9-69" value="" style="endArrow=classic;html=1;rounded=0;fontSize=14;exitX=0.5;exitY=1;exitDx=0;exitDy=0;entryX=0.5;entryY=0;entryDx=0;entryDy=0;" parent="1" source="JpAQMfUCXVNaZjrBORA9-58" target="JpAQMfUCXVNaZjrBORA9-68" edge="1">
          <mxGeometry width="50" height="50" relative="1" as="geometry">
            <mxPoint x="-50" y="530" as="sourcePoint" />
            <mxPoint x="-20" y="530" as="targetPoint" />
          </mxGeometry>
        </mxCell>
        <mxCell id="JpAQMfUCXVNaZjrBORA9-70" value="&lt;font style=&quot;font-size: 14px&quot;&gt;1. Only show 2 coords at the time (delete after used)&lt;br&gt;2. Figure out eye delay time&amp;nbsp;&lt;br&gt;&lt;/font&gt;" style="shape=note;whiteSpace=wrap;html=1;backgroundOutline=1;darkOpacity=0.05;fontSize=18;strokeWidth=1;fillColor=none;" parent="1" vertex="1">
          <mxGeometry y="640" width="210" height="260" as="geometry" />
        </mxCell>
        <mxCell id="JpAQMfUCXVNaZjrBORA9-71" value="connect to EYE as vector&amp;nbsp;" style="rounded=1;whiteSpace=wrap;html=1;arcSize=40;fontColor=#000000;fillColor=#ffffc0;strokeColor=#ff0000;" parent="1" vertex="1">
          <mxGeometry x="275" y="560" width="120" height="40" as="geometry" />
        </mxCell>
        <mxCell id="JpAQMfUCXVNaZjrBORA9-72" value="" style="endArrow=none;dashed=1;html=1;dashPattern=1 3;strokeWidth=2;rounded=0;fontSize=14;entryX=0.5;entryY=1;entryDx=0;entryDy=0;exitX=0.144;exitY=0.006;exitDx=0;exitDy=0;exitPerimeter=0;" parent="1" source="JpAQMfUCXVNaZjrBORA9-70" target="JpAQMfUCXVNaZjrBORA9-68" edge="1">
          <mxGeometry width="50" height="50" relative="1" as="geometry">
            <mxPoint x="-110" y="650" as="sourcePoint" />
            <mxPoint x="-110" y="550" as="targetPoint" />
          </mxGeometry>
        </mxCell>
        <mxCell id="JpAQMfUCXVNaZjrBORA9-78" value="" style="endArrow=diamondThin;endFill=0;endSize=24;html=1;rounded=0;fontSize=14;entryX=1;entryY=0.5;entryDx=0;entryDy=0;exitX=0;exitY=0.5;exitDx=0;exitDy=0;" parent="1" source="JpAQMfUCXVNaZjrBORA9-71" target="JpAQMfUCXVNaZjrBORA9-68" edge="1">
          <mxGeometry width="160" relative="1" as="geometry">
            <mxPoint x="140" y="560" as="sourcePoint" />
            <mxPoint x="300" y="560" as="targetPoint" />
          </mxGeometry>
        </mxCell>
        <mxCell id="JpAQMfUCXVNaZjrBORA9-79" value="output" style="rounded=1;whiteSpace=wrap;html=1;arcSize=40;fontColor=#000000;fillColor=#ffffc0;strokeColor=#ff0000;" parent="1" vertex="1">
          <mxGeometry x="275" y="500" width="120" height="40" as="geometry" />
        </mxCell>
        <mxCell id="JpAQMfUCXVNaZjrBORA9-81" value="" style="endArrow=classic;html=1;rounded=0;fontSize=14;exitX=0.953;exitY=0.119;exitDx=0;exitDy=0;entryX=0.055;entryY=0.906;entryDx=0;entryDy=0;entryPerimeter=0;exitPerimeter=0;" parent="1" source="JpAQMfUCXVNaZjrBORA9-68" target="JpAQMfUCXVNaZjrBORA9-79" edge="1">
          <mxGeometry width="50" height="50" relative="1" as="geometry">
            <mxPoint x="40" y="550.0000000000001" as="sourcePoint" />
            <mxPoint x="40" y="570.0000000000001" as="targetPoint" />
          </mxGeometry>
        </mxCell>
        <mxCell id="JpAQMfUCXVNaZjrBORA9-82" value="Visualisation" style="html=1;fontSize=14;strokeWidth=1;fillColor=none;" parent="1" vertex="1">
          <mxGeometry x="510" y="495" width="110" height="50" as="geometry" />
        </mxCell>
        <mxCell id="JpAQMfUCXVNaZjrBORA9-83" value="return" style="html=1;verticalAlign=bottom;endArrow=open;dashed=1;endSize=8;rounded=0;fontSize=14;exitX=1;exitY=0.5;exitDx=0;exitDy=0;entryX=0;entryY=0.5;entryDx=0;entryDy=0;" parent="1" source="JpAQMfUCXVNaZjrBORA9-79" target="JpAQMfUCXVNaZjrBORA9-82" edge="1">
          <mxGeometry relative="1" as="geometry">
            <mxPoint x="490" y="480" as="sourcePoint" />
            <mxPoint x="410" y="480" as="targetPoint" />
          </mxGeometry>
        </mxCell>
      </root>
    </mxGraphModel>
  </diagram>
</mxfile>
